# xmcd
# 
# Track frame offsets:
#     150
#     14169
#     27490
#     45319
#     58368
#     71463
#     88501
#     105606
#     121785
#     134610
#     153532
#     166240
#     180908
#     195339
#     208290
#     220458
# 
# Disc length: 3125
# 
# Revision: 2
# Processed by: cddbd v1.5.2PL0 Copyright (c) Steve Scherf et al.
# Submitted via: fre:ac v1.0.17
# 
DISCID=e50c3310
DTITLE=Colt Ford - Chicken and Biscuits
DYEAR=2010
DGENRE=Country Rap
TTITLE0=Chicken and Biscuits Featuring James Otto
TTITLE1=Hey Ya'll Featuring Randy Houser
TTITLE2=Diggin'
TTITLE3=Mud Flap Featuring Ty Stone
TTITLE4=All About Ya'll Featuring Josh Gracin
TTITLE5=Nothing In Particular Featuring Sunny Ledfurd
TTITLE6=Tool Timer Featuring Darryl Worley
TTITLE7=Cricket On A Line Featuring Rhett Akins
TTITLE8=She Ain't Too Good For That Featuring Joe Nichols
TTITLE9=Convoy
TTITLE10=Hip Hop In A Honky Tonk Featuring Kevin Fowler
TTITLE11=Ride On, Ride Out Featuring DMC
TTITLE12=Country Kids Featuring Rachel Farley
TTITLE13=Trailer Park Pulp Fiction Featuring Ira Dean
TTITLE14=We Like To Hunt
TTITLE15=Chicken and Biscuits ( Radio Mix )
EXTD=
EXTT0=
EXTT1=
EXTT2=
EXTT3=
EXTT4=
EXTT5=
EXTT6=
EXTT7=
EXTT8=
EXTT9=
EXTT10=
EXTT11=
EXTT12=
EXTT13=
EXTT14=
EXTT15=
PLAYORDER=
